<?xml version="1.0" standalone="no"?><!DOCTYPE svg PUBLIC "-//W3C//DTD SVG 1.1//EN" "http://www.w3.org/Graphics/SVG/1.1/DTD/svg11.dtd"><svg t="1759334797861" class="icon" viewBox="0 0 1024 1024" version="1.1" xmlns="http://www.w3.org/2000/svg" p-id="4963" width="500" height="500" xmlns:xlink="http://www.w3.org/1999/xlink"><path d="M512 512m-512 0a512 512 0 1 0 1024 0 512 512 0 1 0-1024 0Z" fill="#FFE5E3" p-id="4964"></path><path d="M512 512m-316.952381 0a316.952381 316.952381 0 1 0 633.904762 0 316.952381 316.952381 0 1 0-633.904762 0Z" fill="#FC796F" p-id="4965"></path><path d="M559.396571 589.04381l-204.312381 90.89219a9.752381 9.752381 0 0 1-12.921904-12.873143L433.054476 462.750476a58.514286 58.514286 0 0 1 29.647238-29.647238l204.361143-90.89219a9.752381 9.752381 0 0 1 12.873143 12.873142l-90.89219 204.361143a58.514286 58.514286 0 0 1-29.647239 29.647238z" fill="#FCBBB6" p-id="4966"></path></svg>