<?xml version="1.0" standalone="no"?><!DOCTYPE svg PUBLIC "-//W3C//DTD SVG 1.1//EN" "http://www.w3.org/Graphics/SVG/1.1/DTD/svg11.dtd"><svg t="1759134658912" class="icon" viewBox="0 0 1024 1024" version="1.1" xmlns="http://www.w3.org/2000/svg" p-id="6137" width="500" height="500" xmlns:xlink="http://www.w3.org/1999/xlink"><path d="M109.714286 248.173714a117.028571 117.028571 0 0 1 117.028571-117.028571h470.052572a117.028571 117.028571 0 0 1 117.028571 117.028571v491.117715a117.028571 117.028571 0 0 1-117.028571 116.992H226.742857A117.028571 117.028571 0 0 1 109.714286 739.254857V248.210286z" fill="#007EEB" p-id="6138"></path><path d="M173.641143 306.176a117.028571 117.028571 0 0 1 116.992-117.028571H760.685714A117.028571 117.028571 0 0 1 877.714286 306.212571v491.154286A117.028571 117.028571 0 0 1 760.685714 914.285714H290.669714a117.028571 117.028571 0 0 1-117.028571-116.992V306.176z" fill="#4DACFF" p-id="6139"></path><path d="M350.537143 709.522286c0-17.005714 3.949714-29.037714 20.736-29.037715h14.482286c1.609143-30.72 6.473143-41.106286 9.179428-56.429714 6.180571-34.742857 36.205714-55.771429 54.601143-69.12 0-1.024-0.329143-1.353143-0.987429-1.353143-14.153143-10.349714-28.306286-22.016-42.422857-42.422857-16.822857-24.356571-23.332571-55.442286-24.356571-88.868571h-10.496c-17.115429 0-20.736-20.662857-20.736-38.4v-3.291429c0-17.371429 11.52-23.405714 28.928-23.405714h290.779428c16.786286 0 30.573714 6.034286 30.573715 23.405714v3.291429c0 17.737143-6.912 38.4-23.04 38.4h-11.483429c-2.633143 33.426286-7.533714 64.512-24.685714 88.868571-14.08 20.041143-30.244571 32.731429-40.740572 43.081143-2.633143 0.987429-1.353143-0.365714-2.340571 0.658286 19.748571 18.029714 42.130286 31.085714 54.601143 69.12 2.633143 17.737143 6.582857 24.064 8.228571 56.466285h16.457143c16.091429 0 23.04 12.032 23.04 29.037715v5.010285c0 16.384-6.948571 31.744-23.04 31.744h-306.541714c-17.115429 0-20.736-15.36-20.736-31.744v-5.010285z" fill="#FFFFFF" fill-opacity=".2" p-id="6140"></path><path d="M294.582857 73.142857m58.002286 0l230.619428 0q58.002286 0 58.002286 58.002286l0 0q0 58.002286-58.002286 58.002286l-230.619428 0q-58.002286 0-58.002286-58.002286l0 0q0-58.002286 58.002286-58.002286Z" fill="#007EEB" p-id="6141"></path><path d="M352.365714 131.181714m58.002286 0l230.619429 0q58.002286 0 58.002285 58.002286l0 0q0 58.002286-58.002285 58.002286l-230.619429 0q-58.002286 0-58.002286-58.002286l0 0q0-58.002286 58.002286-58.002286Z" fill="#B8DEFF" p-id="6142"></path><path d="M509.513143 907.446857v-49.444571c0-27.318857 22.198857-49.481143 49.481143-49.481143h75.044571v-39.241143c-29.001143-17.042286-49.444571-49.481143-49.444571-85.284571a98.998857 98.998857 0 0 1 98.925714-98.925715 98.998857 98.998857 0 0 1 98.925714 98.925715c0 37.522286-20.48 68.242286-49.444571 85.284571v39.241143h75.044571c27.282286 0 49.481143 22.162286 49.481143 49.481143v49.444571h-348.013714z" fill="#FF841F" p-id="6143"></path><path d="M509.513143 958.646857a51.2 51.2 0 0 1-51.2-51.2v-49.444571a100.717714 100.717714 0 0 1 94.72-100.498286 147.931429 147.931429 0 0 1-19.638857-73.508571 150.198857 150.198857 0 0 1 150.125714-150.125715 150.198857 150.198857 0 0 1 150.125714 150.125715c0 27.318857-7.168 52.224-19.309714 73.508571a100.717714 100.717714 0 0 1 94.354286 100.498286v49.444571a51.2 51.2 0 0 1-51.2 51.2h-347.977143z m223.451428-189.366857c5.888-3.437714 11.410286-7.460571 16.457143-11.958857a97.133714 97.133714 0 0 0 33.024-73.325714 98.998857 98.998857 0 0 0-98.925714-98.925715 98.998857 98.998857 0 0 0-98.925714 98.925715c0 28.672 13.092571 55.149714 33.206857 73.325714 5.010286 4.534857 10.459429 8.557714 16.237714 11.958857v39.241143h-75.044571a49.517714 49.517714 0 0 0-49.481143 49.481143v49.444571h348.013714v-49.444571l-0.036571-1.755429a49.517714 49.517714 0 0 0-49.444572-47.725714h-75.044571v-39.241143z" fill="#FFFFFF" p-id="6144"></path></svg>