<?xml version="1.0" standalone="no"?><!DOCTYPE svg PUBLIC "-//W3C//DTD SVG 1.1//EN" "http://www.w3.org/Graphics/SVG/1.1/DTD/svg11.dtd"><svg t="1758954625942" class="icon" viewBox="0 0 1365 1024" version="1.1" xmlns="http://www.w3.org/2000/svg" p-id="5805" width="666.50390625" height="500" xmlns:xlink="http://www.w3.org/1999/xlink"><path d="M51.165867 871.3216a637.5424 30.446933 0 1 0 1275.0848 0 637.5424 30.446933 0 1 0-1275.0848 0Z" fill="#CFD7E5" opacity=".5" p-id="5806"></path><path d="M109.499733 916.104533a189.371733 52.053333 0 1 0 378.743467 0 189.371733 52.053333 0 1 0-378.743467 0Z" fill="#CFD7E5" opacity=".5" p-id="5807"></path><path d="M481.245867 921.224533a97.553067 27.272533 0 1 0 195.106133 0 97.553067 27.272533 0 1 0-195.106133 0Z" fill="#CFD7E5" opacity=".5" p-id="5808"></path><path d="M793.668267 88.712533l-190.225067 42.8032c-10.615467 2.389333-17.271467 12.936533-14.916267 23.552l52.155734 231.867734 223.505066-50.2784a9.864533 9.864533 0 0 0 4.846934-2.6624l-51.8144-230.365867a19.7632 19.7632 0 0 0-23.552-14.916267z" fill="#E6E6E6" p-id="5809"></path><path d="M724.548267 120.661333l-104.2432 23.4496a17.98144 17.98144 0 0 0-13.585067 21.435734l49.0496 217.975466 198.519467-44.6464-35.703467-158.754133c-9.591467-42.359467-51.643733-68.949333-94.037333-59.460267z" fill="#FFFFFF" p-id="5810"></path><path d="M816.093867 327.133867l-130.8672 29.457066c-2.3552 0.512-3.857067 2.8672-3.310934 5.2224 0.512 2.3552 2.8672 3.857067 5.2224 3.310934l130.8672-29.457067c2.3552-0.512 3.857067-2.8672 3.310934-5.2224-0.477867-2.3552-2.833067-3.857067-5.2224-3.310933 0.034133 0 0.034133 0 0 0zM812.305067 310.272l-130.8672 29.457067c-2.3552 0.546133-3.822933 2.8672-3.310934 5.2224 0.546133 2.3552 2.8672 3.822933 5.2224 3.310933l130.8672-29.457067c2.3552-0.546133 3.822933-2.8672 3.310934-5.2224-0.512-2.3552-2.8672-3.857067-5.2224-3.310933zM734.378667 310.0672l-56.7296 12.765867c-2.3552 0.546133-3.822933 2.8672-3.310934 5.2224 0.546133 2.3552 2.8672 3.822933 5.2224 3.310933l56.7296-12.765867c2.3552-0.512 3.857067-2.8672 3.310934-5.2224-0.512-2.3552-2.833067-3.822933-5.2224-3.310933 0.034133 0 0 0 0 0zM800.5632 258.082133l-130.8672 29.457067c-2.3552 0.546133-3.822933 2.8672-3.310933 5.2224 0.546133 2.3552 2.8672 3.822933 5.2224 3.310933l130.8672-29.457066c2.3552-0.546133 3.822933-2.8672 3.310933-5.2224-0.512-2.3552-2.8672-3.857067-5.2224-3.310934zM796.7744 241.220267l-130.8672 29.457066c-2.3552 0.512-3.857067 2.8672-3.310933 5.2224 0.512 2.3552 2.8672 3.857067 5.2224 3.310934l130.8672-29.457067c2.3552-0.512 3.822933-2.8672 3.310933-5.2224-0.512-2.3552-2.8672-3.857067-5.2224-3.310933zM718.848 241.015467l-56.7296 12.765866c-2.3552 0.546133-3.822933 2.8672-3.310933 5.2224 0.546133 2.3552 2.8672 3.822933 5.2224 3.310934l56.7296-12.765867c2.3552-0.546133 3.822933-2.8672 3.310933-5.2224-0.512-2.3552-2.8672-3.822933-5.2224-3.310933z" fill="#E4E4E4" p-id="5811"></path><path d="M785.032533 189.0304L654.165333 218.453333c-2.3552 0.546133-3.822933 2.8672-3.310933 5.2224 0.546133 2.3552 2.8672 3.822933 5.2224 3.310934l130.8672-29.457067c2.3552-0.546133 3.822933-2.8672 3.310933-5.2224-0.512-2.321067-2.8672-3.822933-5.2224-3.2768zM781.243733 172.168533l-130.8672 29.457067c-2.3552 0.546133-3.822933 2.8672-3.310933 5.2224 0.546133 2.3552 2.8672 3.822933 5.2224 3.310933l130.8672-29.457066c2.3552-0.546133 3.822933-2.8672 3.310933-5.2224-0.512-2.3552-2.8672-3.857067-5.2224-3.310934zM703.317333 171.963733l-56.7296 12.765867c-2.3552 0.546133-3.822933 2.8672-3.310933 5.2224 0.546133 2.3552 2.8672 3.822933 5.2224 3.310933l56.7296-12.765866c2.3552-0.546133 3.822933-2.8672 3.310933-5.2224-0.546133-2.3552-2.8672-3.822933-5.2224-3.310934z" fill="#E6E6E6" p-id="5812"></path><path d="M414.139733 357.751467c-2.594133 0-4.676267 2.082133-4.676266 4.676266v483.6352c0 2.594133 2.082133 4.676267 4.676266 4.676267h606.378667c2.594133 0 4.676267-2.082133 4.676267-4.676267V440.046933c0-2.594133-2.082133-4.676267-4.676267-4.676266H672.494933c-3.549867 0-6.929067-1.297067-9.557333-3.6864l-78.2336-71.099734c-2.013867-1.8432-4.642133-2.8672-7.3728-2.8672h-163.191467z" fill="#3F3D56" p-id="5813"></path><path d="M1137.800533 231.253333l-324.676266-139.5712c-18.1248-7.7824-39.1168 0.6144-46.933334 18.705067l-170.120533 395.741867 381.474133 164.010666c3.140267 1.365333 6.587733 1.774933 9.9328 1.2288L1156.5056 278.186667c7.7824-18.1248-0.580267-39.1168-18.705067-46.933334z" fill="#E6E6E6" p-id="5814"></path><path d="M1002.427733 204.561067l-177.937066-76.4928c-16.520533-7.0656-35.6352 0.546133-42.734934 17.032533l-159.9488 372.053333 338.807467 145.646934 116.497067-270.9504c30.993067-72.328533-2.389333-156.091733-74.683734-187.2896z" fill="#FFFFFF" p-id="5815"></path><path d="M917.0944 604.9792l-223.368533-96.017067a7.918933 7.918933 0 0 0-10.410667 4.164267 7.918933 7.918933 0 0 0 4.164267 10.410667l223.368533 96.017066c4.027733 1.7408 8.669867-0.1024 10.410667-4.130133 1.7408-4.027733-0.1024-8.704-4.164267-10.4448 0.034133 0 0.034133 0 0 0zM929.4848 576.170667l-223.368533-96.017067c-4.027733-1.7408-8.704 0.136533-10.410667 4.164267a7.918933 7.918933 0 0 0 4.164267 10.410666l223.368533 96.017067a7.939413 7.939413 0 1 0 6.314667-14.574933c-0.034133 0.034133-0.068267 0-0.068267 0zM815.3088 492.987733l-96.836267-41.642666a7.918933 7.918933 0 0 0-10.410666 4.164266 7.918933 7.918933 0 0 0 4.164266 10.410667l96.836267 41.642667c4.027733 1.7408 8.669867-0.1024 10.410667-4.130134 1.7408-4.027733-0.1024-8.704-4.164267-10.4448 0.034133 0.034133 0 0 0 0zM967.7824 487.1168l-223.368533-96.017067c-4.027733-1.7408-8.704 0.136533-10.410667 4.164267-1.7408 4.027733 0.136533 8.704 4.164267 10.410667l223.368533 96.017066a7.918933 7.918933 0 0 0 10.410667-4.130133c1.7408-4.061867-0.136533-8.704-4.164267-10.4448zM980.138667 458.3424l-223.368534-96.017067c-4.027733-1.7408-8.669867 0.1024-10.410666 4.130134-1.7408 4.027733 0.1024 8.669867 4.130133 10.410666h0.034133l223.368534 96.017067c4.027733 1.7408 8.669867-0.1024 10.410666-4.130133 1.7408-4.027733-0.1024-8.669867-4.130133-10.410667h-0.034133zM865.9968 375.125333l-96.836267-41.642666c-4.027733-1.7408-8.704 0.136533-10.410666 4.164266a7.918933 7.918933 0 0 0 4.164266 10.410667l96.836267 41.642667a7.918933 7.918933 0 0 0 10.410667-4.130134 7.9872 7.9872 0 0 0-4.164267-10.4448z" fill="#E4E4E4" p-id="5816"></path><path d="M1018.4704 369.2544l-223.368533-96.017067c-4.027733-1.7408-8.704 0.136533-10.410667 4.164267a7.918933 7.918933 0 0 0 4.164267 10.410667l223.368533 96.017066a7.918933 7.918933 0 0 0 10.410667-4.130133c1.706667-4.061867-0.136533-8.704-4.164267-10.4448zM1030.826667 340.48l-223.368534-96.017067c-4.027733-1.7408-8.704 0.136533-10.410666 4.164267a7.918933 7.918933 0 0 0 4.164266 10.410667l223.368534 96.017066a7.939413 7.939413 0 1 0 6.314666-14.574933H1030.826667zM916.650667 257.262933l-96.836267-41.642666c-4.027733-1.7408-8.704 0.136533-10.410667 4.164266a7.918933 7.918933 0 0 0 4.164267 10.410667l96.836267 41.642667a7.918933 7.918933 0 0 0 10.410666-4.130134c1.7408-4.027733-0.1024-8.704-4.164266-10.4448 0.034133 0 0 0 0 0z" fill="#4B73F5" p-id="5817"></path><path d="M675.601067 374.9888L485.376 417.792c-10.615467 2.389333-17.271467 12.936533-14.916267 23.552l52.155734 231.867733 223.505066-50.2784a9.864533 9.864533 0 0 0 4.846934-2.6624l-51.8144-230.365866a19.694933 19.694933 0 0 0-23.552-14.916267z" fill="#E6E6E6" p-id="5818"></path><path d="M606.481067 406.903467l-104.2432 23.4496a17.98144 17.98144 0 0 0-13.585067 21.435733l49.0496 217.975467 198.519467-44.6464-35.703467-158.754134c-9.591467-42.325333-51.643733-68.949333-94.037333-59.460266z" fill="#FFFFFF" p-id="5819"></path><path d="M698.0608 613.376l-130.8672 29.457067c-2.3552 0.512-3.857067 2.8672-3.310933 5.2224 0.512 2.3552 2.8672 3.857067 5.2224 3.310933l130.8672-29.457067c2.3552-0.512 3.857067-2.8672 3.310933-5.2224-0.512-2.3552-2.833067-3.822933-5.2224-3.310933zM694.237867 596.514133l-130.8672 29.457067c-2.3552 0.546133-3.822933 2.8672-3.310934 5.2224 0.546133 2.3552 2.8672 3.822933 5.2224 3.310933l130.8672-29.457066c2.3552-0.512 3.857067-2.8672 3.310934-5.2224-0.477867-2.3552-2.833067-3.822933-5.2224-3.310934 0.034133 0 0.034133 0 0 0zM616.311467 596.343467l-56.7296 12.765866c-2.3552 0.546133-3.822933 2.8672-3.310934 5.2224 0.546133 2.3552 2.8672 3.822933 5.2224 3.310934l56.7296-12.765867c2.3552-0.512 3.857067-2.8672 3.310934-5.2224-0.477867-2.3552-2.833067-3.857067-5.2224-3.310933 0.034133 0 0 0 0 0zM682.496 544.324267l-130.8672 29.457066c-2.3552 0.546133-3.822933 2.8672-3.310933 5.2224 0.546133 2.3552 2.8672 3.822933 5.2224 3.310934l130.8672-29.457067c2.3552-0.512 3.857067-2.8672 3.310933-5.2224-0.477867-2.3552-2.833067-3.822933-5.2224-3.310933 0.034133 0 0.034133 0 0 0zM678.7072 527.4624l-130.8672 29.457067c-2.3552 0.512-3.857067 2.8672-3.310933 5.2224 0.512 2.3552 2.8672 3.857067 5.2224 3.310933l130.8672-29.457067c2.3552-0.512 3.857067-2.8672 3.310933-5.2224s-2.833067-3.822933-5.2224-3.310933c0.034133 0 0 0 0 0zM600.7808 527.291733l-56.7296 12.765867c-2.3552 0.546133-3.822933 2.8672-3.310933 5.2224 0.546133 2.3552 2.8672 3.822933 5.2224 3.310933l56.7296-12.765866c2.3552-0.512 3.857067-2.8672 3.310933-5.2224a4.334933 4.334933 0 0 0-5.2224-3.310934c0-0.034133 0 0 0 0z" fill="#E4E4E4" p-id="5820"></path><path d="M666.965333 475.272533l-130.8672 29.457067c-2.3552 0.546133-3.822933 2.8672-3.310933 5.2224 0.546133 2.3552 2.8672 3.822933 5.2224 3.310933l130.8672-29.457066c2.3552-0.546133 3.822933-2.8672 3.310933-5.2224-0.512-2.3552-2.8672-3.857067-5.2224-3.310934zM663.176533 458.410667l-130.8672 29.457066c-2.3552 0.546133-3.822933 2.8672-3.310933 5.2224 0.546133 2.3552 2.8672 3.822933 5.2224 3.310934l130.8672-29.457067c2.3552-0.546133 3.822933-2.8672 3.310933-5.2224-0.512-2.3552-2.8672-3.857067-5.2224-3.310933zM585.250133 458.205867l-56.7296 12.765866c-2.3552 0.546133-3.822933 2.8672-3.310933 5.2224 0.546133 2.3552 2.8672 3.822933 5.2224 3.310934l56.7296-12.765867c2.3552-0.546133 3.822933-2.8672 3.310933-5.2224-0.512-2.3552-2.8672-3.822933-5.2224-3.310933z" fill="#E6E6E6" p-id="5821"></path><path d="M410.146133 484.7616c-2.594133 0-4.676267 2.082133-4.676266 4.676267l0.136533 360.379733c0.273067 2.3552 2.2528 4.164267 4.642133 4.164267h651.400534c2.389333 0 4.369067-1.774933 4.642133-4.164267l40.5504-359.8336a4.686507 4.686507 0 0 0-4.642133-5.2224H410.146133z" fill="#3F3D56" p-id="5822"></path><path d="M636.7232 713.864533h-160.187733a6.2464 6.2464 0 0 1 0-12.4928h160.187733c8.055467-0.1024 8.123733 12.5952 0 12.4928zM852.514133 746.496H476.535467a6.2464 6.2464 0 0 1 0-12.4928h375.978666c8.021333-0.1024 8.123733 12.5952 0 12.4928z" fill="#E4E4E4" p-id="5823"></path><path d="M520.567467 918.869333l12.322133 0.8192-0.1024 0.273067 28.228267 1.809067 1.536-0.170667 12.322133 0.8192-0.068267 0.238933 25.838934 1.672534 1.536-0.170667 12.356266 0.785067-0.1024 0.273066 22.528 1.467734 0.648534-0.068267a16.349867 16.349867 0 0 0 10.069333-9.1136l0.238933-0.7168c1.1264-4.437333 0.375467-9.147733-2.048-13.0048l-0.238933-0.443733-97.006933-63.863467 3.9936-11.298133-14.916267-5.290667-36.078933 101.956267 14.916266 5.290666 4.027734-11.264z m74.922666-43.4176l16.1792 10.6496-12.014933 33.928534-19.490133-1.262934 15.325866-43.3152z m-57.309866 40.5504l22.459733-63.488 18.158933 11.946667-18.7392 52.9408-21.879466-1.399467z m106.052266 0c-1.399467 3.037867-3.959467 5.393067-7.099733 6.4512l-17.3056-1.1264 8.567467-24.200533 14.301866 9.454933c1.706667 2.7648 2.2528 6.0416 1.604267 9.216l-0.068267 0.2048z" fill="#CFD7E5" p-id="5824"></path><path d="M346.112 490.2912V436.906667c0.068267-39.5264-31.880533-71.611733-71.406933-71.68-39.5264-0.068267-71.611733 31.880533-71.68 71.406933v0.273067c-12.5952 26.282667-4.7104 38.775467 0 53.384533 0 5.290667 4.3008 9.591467 9.591466 9.591467h123.869867c5.3248 0.034133 9.6256-4.266667 9.6256-9.591467z" fill="#2F2E41" p-id="5825"></path><path d="M254.2592 548.420267s15.906133-9.5232 12.356267-58.368l32.8704-6.8608s-3.6864 43.8272 12.936533 57.719466l-58.1632 7.509334z" fill="#EDA59F" p-id="5826"></path><path d="M305.698133 531.729067l-27.306666-23.552 21.435733-0.238934c0.6144 8.260267 2.628267 16.315733 5.870933 23.790934z" opacity=".15" p-id="5827"></path><path d="M293.888 458.103467m-53.5552 0a53.5552 53.5552 0 1 0 107.1104 0 53.5552 53.5552 0 1 0-107.1104 0Z" fill="#F5A9A0" p-id="5828"></path><path d="M241.9712 456.9088c0.477867-0.068267 0.955733-0.170667 1.467733-0.238933 8.362667-1.467733 16.6912-2.935467 25.019734-4.437334l0.750933-18.875733 10.103467 16.896c23.005867 7.645867 44.544 3.310933 64.8192-6.212267a182.0672 182.0672 0 0 0 19.421866-10.717866c-3.447467-21.162667-16.247467-39.594667-34.884266-50.210134-0.750933-0.443733-1.501867-0.8192-2.286934-1.194666 0 0-0.034133 0-0.034133-0.034134-1.297067-0.6144-2.628267-1.194667-3.959467-1.7408a58.975573 58.975573 0 0 0-61.917866 12.014934c-16.315733 15.598933-23.688533 41.3696-18.500267 64.750933z" fill="#2F2E41" p-id="5829"></path><path d="M383.453867 907.332267c3.925333-0.750933 48.0256-9.250133 48.0256-9.250134l-7.2704-48.0256-47.889067 9.216 7.133867 48.059734z" fill="#F5A9A0" p-id="5830"></path><path d="M469.060267 948.906667c0.750933 5.188267-2.389333 10.103467-6.997334 10.9568l-0.6144 0.1024 0.6144-0.1024c-3.2768 0.341333-7.031467-1.4336-8.669866-4.642134l-37.341867-48.298666c-0.955733-2.082133-1.092267-4.5056-0.341333-6.690134 3.584-8.6016 4.642133-18.2272 3.003733-27.5456-1.536-7.202133-4.846933-13.755733-9.5232-18.944-1.3312-1.297067-1.467733-3.584-0.3072-5.051733 0.477867-0.6144 1.160533-1.058133 1.877333-1.194667l36.6592-9.079466c3.003733-0.580267 5.8368 1.706667 6.3488 5.12l15.291734 105.3696z" fill="#142233" p-id="5831"></path><path d="M246.920533 777.386667c-18.295467 0.853333-36.932267 1.467733-55.569066 1.979733l-28.023467 0.682667-27.989333 0.580266-2.798934 0.068267c-25.224533 0.546133-45.294933 24.029867-44.817066 52.497067 0.443733 25.668267 17.544533 47.069867 40.1408 50.176l276.548266 37.888 11.264-92.194134-275.285333-47.9232-7.4752 102.7072 28.398933 2.082134 28.398934 1.9456c18.944 1.2288 37.922133 2.389333 57.2416 3.2768l-0.034134-113.7664z" fill="#102747" p-id="5832"></path><path d="M177.186133 887.159467c38.161067-6.280533 41.984-7.441067 43.246934-7.7824l-11.229867-47.069867c0.136533-0.034133 0.273067-0.1024 0.477867-0.136533-3.140267 0.785067-22.528 4.096-38.7072 6.7584l6.212266 48.2304z" fill="#F5A9A0" p-id="5833"></path><path d="M118.784 924.433067c-1.604267 4.949333 0.648533 10.410667 5.0176 12.253866 0.2048 0.068267 0.375467 0.136533 0.580267 0.2048 3.1744 1.024 6.5536-0.1024 8.704-2.935466l44.066133-41.8816c1.297067-1.8432 1.809067-4.1984 1.4336-6.485334-2.082133-9.181867-1.501867-18.909867 1.672533-27.682133 2.730667-6.724267 7.0656-12.4928 12.561067-16.554667 1.536-0.989867 2.048-3.1744 1.160533-4.9152-0.375467-0.7168-0.955733-1.262933-1.6384-1.570133l-33.757866-14.301867c-2.8672-1.194667-6.0416 0.443733-7.099734 3.6864l-32.699733 100.181334z" fill="#142233" p-id="5834"></path><path d="M377.821867 878.250667l17.373866-0.750934 17.373867-0.580266c11.5712-0.443733 23.1424-0.6144 34.7136-0.853334l-3.9936-93.7984c-21.674667 3.413333-242.449067 19.080533-264.260267 21.230934l10.9568 138.376533c21.640533-3.549867 241.186133-63.829333 262.9632-66.116267 22.903467-2.423467 39.697067-25.2928 37.546667-51.131733-1.911467-23.074133-18.500267-41.130667-39.0144-42.496l-2.594133-0.170667c-11.537067-0.750933-23.108267-1.467733-34.645334-2.423466l-17.339733-1.3312-31.744-0.8192c-11.537067-0.989867 1.092267 101.307733 12.663467 100.864z" fill="#102747" p-id="5835"></path><path d="M138.4448 643.106133c2.7648-11.844267 26.9312-62.2592 53.111467-92.0576 17.066667-19.421867 50.449067-16.6912 58.2656-16.6912 1.467733 13.0048 71.5776 13.073067 72.0896 0.3072 2.6624 0.034133 4.744533 0.1024 6.0416 0.170667 28.330667 1.365333 43.656533-2.901333 59.835733 26.487467 21.367467 38.843733 59.426133 121.2416 49.629867 177.186133-2.286933 13.038933-7.3728 17.373867-18.432 22.528a19.319467 19.319467 0 0 1-11.298134 1.604267l-32.4608-5.2224c1.604267 9.1136 1.8432 16.213333-1.297066 24.405333-8.635733 22.357333-178.005333 31.6416-180.292267-7.68-0.034133-0.375467-0.034133-0.785067-0.034133-1.160533l-28.16-2.935467c-47.2064-13.312-31.9488-105.847467-26.999467-126.941867z m234.530133 56.149334l-7.406933-20.241067c0.1024 10.478933 0.034133 12.117333 0.750933 20.241067h6.656z m-167.287466 24.200533c4.061867-14.5408 6.075733-29.661867 6.075733-44.919467 0-1.774933-0.068267-3.549867-0.170667-5.290666l-5.905066 50.210133z" fill="#4B73F5" p-id="5836"></path><path d="M321.911467 534.664533c-0.546133 12.765867-6.690133 31.5392-25.668267 32.9728-25.2928 1.877333-44.919467-20.241067-46.421333-33.245866h0.068266c24.8832-0.034133 57.480533 0 72.021334 0.273066z" fill="#F5A9A0" p-id="5837"></path><path d="M342.903467 751.8208l-55.330134 20.138667-93.934933 2.184533 86.1184 5.3248 39.7312-1.672533 19.217067-17.544534zM337.749333 739.805867l-93.661866-7.5776 85.0944 14.199466zM366.318933 688.878933l-115.370666-9.8304 115.370666 20.206934zM202.9568 696.285867l47.274667 23.108266 0.7168 9.966934-34.6112-7.850667-10.6496-16.213333z" fill="#426EE5" p-id="5838"></path><path d="M330.001067 759.125333c-9.250133 6.417067-23.552 9.454933-36.010667 10.581334l-0.682667-25.634134c5.870933-0.170667 14.882133-0.887467 23.688534-0.477866 3.9936-3.652267 6.280533-4.744533 10.376533-9.386667 4.369067-4.9152 15.803733-7.850667 17.954133 0 2.184533 7.8848-7.202133 19.2512-15.325866 24.917333zM214.2208 712.465067c9.250133 7.8848 23.552 11.639467 36.010667 13.0048l0.682666-31.470934c-5.870933-0.238933-14.882133-1.092267-23.688533-0.6144-3.9936-4.5056-6.280533-5.8368-10.376533-11.502933-4.369067-6.0416-15.803733-9.659733-17.954134 0-2.1504 9.659733 7.236267 23.6544 15.325867 30.583467z" fill="#F5A9A0" p-id="5839"></path><path d="M1109.0944 752.810667c1.092267 0.955733 2.2528 1.911467 3.242667 3.003733 0.989867 1.058133 1.911467 2.184533 2.798933 3.345067 1.774933 2.3552 3.345067 4.8128 4.744533 7.406933 2.833067 5.2224 5.051733 10.786133 6.997334 16.418133 1.092267 3.1744 2.082133 6.382933 3.037866 9.6256 0.170667 0.580267-0.7168 0.785067-0.887466 0.238934-1.774933-5.632-3.515733-11.298133-5.7344-16.7936-2.184533-5.4272-4.778667-10.683733-8.123734-15.496534-0.9216-1.3312-1.911467-2.628267-2.901333-3.857066-1.058133-1.297067-2.082133-2.594133-3.242667-3.7888-0.068267-0.1024 0-0.170667 0.068267-0.1024z" fill="#ABE3DE" p-id="5840"></path><path d="M1116.398933 724.3776c1.365333 2.082133 2.628267 4.1984 3.754667 6.382933 1.058133 2.116267 2.013867 4.266667 2.8672 6.485334 1.706667 4.334933 3.003733 8.840533 3.9936 13.4144 1.092267 5.051733 1.7408 10.171733 2.3552 15.291733 0.648533 5.4272 1.2288 10.820267 1.7408 16.247467 0.580267 6.178133 0.989867 12.322133 1.297067 18.500266 0.034133 0.6144-0.546133 1.1264-1.1264 1.1264-0.648533 0-1.058133-0.512-1.1264-1.1264-0.750933-10.888533-1.604267-21.742933-2.833067-32.597333-0.580267-5.051733-1.1264-10.1376-2.048-15.1552a96.0512 96.0512 0 0 0-3.4816-13.448533c-1.672533-5.0176-3.857067-9.9328-6.178133-14.711467-0.2048-0.477867 0.477867-0.887467 0.785066-0.4096z" fill="#4CC89E" p-id="5841"></path><path d="M1118.1056 730.487467s14.336-5.597867 9.147733-22.562134c0 0-9.489067-20.309333-19.899733-24.917333l-1.194667 6.280533s0.8192-6.109867-1.7408-7.2704c-2.56-1.160533-8.192-2.901333-9.216-1.2288-1.024 1.672533-0.989867 2.935467-0.989866 2.935467l-1.6384-1.160533s-1.6384 3.037867-1.604267 4.744533l2.491733 3.652267-3.310933-2.048s-5.0176 16.657067 15.837867 42.018133c0-0.034133 3.515733 4.266667 12.117333-0.443733z" fill="#ABE3DE" p-id="5842"></path><path d="M1168.1792 803.1232c0.2048 1.2288 0.341333 2.491733 0.341333 3.7888v50.312533c0 10.6496-7.918933 19.387733-17.6128 19.387734h-35.0208c-9.693867 0-17.6128-8.738133-17.6128-19.387734V806.912c0-1.297067 0.1024-2.56 0.341334-3.7888h69.563733z" fill="#CFD7E5" p-id="5843"></path><path d="M1168.759467 804.0448c0 3.310933-15.837867 6.007467-35.362134 6.007467s-35.362133-2.696533-35.362133-6.007467 15.803733-6.007467 35.362133-6.007467c19.524267-0.034133 35.362133 2.6624 35.362134 6.007467z" fill="#DAE2F4" p-id="5844"></path><path d="M1162.410667 804.0448c0 2.696533-12.8 4.881067-28.5696 4.881067-15.803733 0-28.603733-2.184533-28.603734-4.881067 0-2.696533 12.8-4.881067 28.603734-4.881067 15.7696 0 28.5696 2.184533 28.5696 4.881067z" fill="#DAE2F4" p-id="5845"></path><path d="M1223.816533 634.0608v-2.4576s-2.594133-0.170667-4.232533 1.2288l-3.242667 3.345067c-0.170667 0.170667 1.6384-4.5056 1.6384-4.5056s-22.459733 7.611733-37.410133 21.435733c-14.9504 13.824-3.242667 31.880533-2.594133 31.880533 0.6144-0.034133 39.492267-20.514133 45.841066-50.926933z m-63.931733 55.261867s12.970667 2.3552 11.0592 12.526933c0 0-5.597867 12.526933-19.899733 8.3968 0 0-10.5472-3.822933-10.717867-11.502933 0 0.034133 2.901333-16.349867 19.5584-9.4208z m36.113067 46.626133c0.238933-1.570133-1.9456-3.1744-3.584-3.447467h-2.6624l5.0176-1.467733s-6.007467-10.888533-20.309334-15.906133c0 0-13.141333-8.840533-26.692266 7.953066 0 0-9.147733 4.7104-1.024 8.704 0.4096 0.2048 0.853333 0.375467 1.262933 0.580267 6.587733 2.833067 13.653333 4.778667 20.753067 5.870933 5.154133 0.8192 10.274133 0.512 15.428266 0.9216 3.4816 0.273067 8.704 0.682667 11.332267-2.184533 0.273067-0.341333 0.4096-0.682667 0.477867-1.024z" fill="#4CC89E" p-id="5846"></path><path d="M1120.085333 766.7712s-47.445333-25.156267-48.2304-26.5216c-0.785067-1.365333 2.628267-0.375467 2.628267-0.375467s4.676267-2.389333 9.045333-0.170666l2.4576 3.4816-0.682666-3.447467s25.429333 5.051733 33.348266 16.6912c0.034133 0 7.611733 6.485333 1.4336 10.3424zM1118.446933 637.269333c3.857067 9.9328 6.280533 20.343467 7.9872 30.856534 1.706667 10.4448 2.6624 21.026133 3.652267 31.5392 1.058133 11.332267 2.1504 22.698667 3.037867 34.030933 0.887467 11.298133 1.6384 22.596267 2.082133 33.928533 0.443733 11.400533 0.580267 22.8352 0.238933 34.269867-0.034133 1.399467-0.1024 2.798933-0.136533 4.232533-0.068267 1.7408 2.6624 1.7408 2.730667 0 0.443733-11.400533 0.443733-22.8352 0.068266-34.269866-0.375467-11.434667-1.058133-22.869333-1.911466-34.304-0.853333-11.3664-1.911467-22.698667-2.9696-34.030934-1.024-10.717867-1.9456-21.435733-3.4816-32.085333-1.536-10.581333-3.720533-21.0944-7.236267-31.197867-0.443733-1.2288-0.887467-2.491733-1.365333-3.6864-0.273067-0.682667-0.9216-1.160533-1.672534-0.955733-0.750933 0.170667-1.297067 0.989867-1.024 1.672533z" fill="#ABE3DE" p-id="5847"></path><path d="M1062.024533 719.428267c1.024-0.2048 1.979733-0.273067 3.003734-0.238934a36.614827 36.614827 0 0 1 8.840533 1.570134c3.754667 1.160533 7.3728 2.7648 10.8544 4.573866 3.447467 1.809067 6.7584 3.8912 10.0352 6.007467 3.242667 2.116267 6.314667 4.4032 9.216 6.9632 5.666133 5.051733 10.513067 10.990933 14.5408 17.408 4.3008 6.929067 7.611733 14.472533 9.9328 22.289067a109.851307 109.851307 0 0 1 3.7888 18.909866c0.136533 1.058133 0.2048 2.116267 0.273067 3.140267 0.068267 1.058133 0.170667 2.116267 0.170666 3.1744-0.034133 1.058133-0.068267 2.116267-0.136533 3.1744-0.034133 0.546133-0.375467 1.024-0.955733 1.092267-0.512 0.068267-1.1264-0.238933-1.2288-0.785067-0.170667-1.058133-0.3072-2.013867-0.477867-3.072-0.170667-1.1264-0.238933-2.2528-0.375467-3.3792-0.1024-1.058133-0.238933-2.116267-0.375466-3.140267-0.068267-0.477867-0.1024-0.955733-0.170667-1.4336-0.068267-0.512 0.034133 0.170667-0.034133-0.136533-0.034133-0.136533-0.034133-0.273067-0.068267-0.375467l-0.136533-0.853333a114.210133 114.210133 0 0 0-2.525867-12.322133c-1.092267-4.027733-2.389333-7.9872-3.959467-11.844267l-0.3072-0.7168c-0.034133-0.1024-0.068267-0.2048-0.136533-0.3072 0.1024 0.238933-0.034133-0.068267-0.068267-0.136533-0.2048-0.512-0.443733-1.024-0.682666-1.536-0.4096-0.887467-0.8192-1.7408-1.2288-2.628267-0.8192-1.672533-1.672533-3.310933-2.594134-4.9152-1.8432-3.208533-3.8912-6.280533-6.109866-9.250133-0.034133-0.034133-0.3072-0.375467-0.1024-0.136534l-0.170667-0.238933c-0.136533-0.170667-0.273067-0.375467-0.443733-0.546133l-0.887467-1.092267a74.9568 74.9568 0 0 0-9.762133-9.8304c-0.7168-0.6144-1.4336-1.194667-2.184534-1.7408 0.2048 0.170667-0.034133-0.034133-0.068266-0.068267-0.1024-0.068267-0.170667-0.136533-0.273067-0.2048-0.170667-0.136533-0.341333-0.238933-0.512-0.375466-0.4096-0.3072-0.785067-0.580267-1.194667-0.853334a119.773867 119.773867 0 0 0-9.693866-6.212266c-1.672533-0.955733-3.345067-1.911467-5.085867-2.7648-1.706667-0.853333-3.242667-1.536-4.9152-2.184534-3.584-1.365333-7.304533-2.3552-11.093333-3.072-0.955733-0.170667-1.877333-0.375467-2.798934-0.648533-0.443733-0.238933-0.512-1.160533 0.1024-1.262933z" fill="#4CC89E" p-id="5848"></path><path d="M1183.300267 677.888c-1.297067 4.266667-3.925333 7.8848-6.690134 11.332267-2.833067 3.515733-5.666133 7.031467-8.362666 10.6496-5.632 7.509333-10.9568 15.291733-15.496534 23.483733-2.1504 3.8912-4.1984 7.850667-5.8368 11.9808-1.604267 4.061867-2.901333 8.260267-4.027733 12.526933-2.218667 8.567467-3.720533 17.3056-5.358933 25.975467-1.809067 9.4208-3.754667 18.807467-3.6864 28.433067 0 1.262933 0.068267 2.491733 0.136533 3.754666 0.034133 0.7168-0.648533 1.365333-1.365333 1.365334-0.785067 0-1.297067-0.6144-1.365334-1.365334-0.6144-9.966933 1.058133-19.797333 2.9696-29.525333 1.706667-8.669867 3.140267-17.408 5.188267-25.975467 1.024-4.266667 2.184533-8.4992 3.652267-12.629333 1.467733-4.232533 3.310933-8.2944 5.393066-12.253867 4.334933-8.362667 9.489067-16.2816 15.0528-23.893333 2.7648-3.7888 5.666133-7.543467 8.6016-11.229867 2.6624-3.345067 5.5296-6.587733 7.441067-10.4448 0.443733-0.9216 0.853333-1.911467 1.160533-2.901333 0.477867-1.672533 3.106133-0.989867 2.594134 0.7168z" fill="#4CC89E" p-id="5849"></path><path d="M1207.159467 702.088533c-6.929067 5.905067-13.789867 11.946667-20.548267 18.0224-3.3792 3.037867-6.724267 6.109867-10.0352 9.181867-2.9696 2.7648-5.802667 5.632-8.362667 8.772267-4.881067 5.9392-8.874667 12.5952-12.561066 19.319466-3.925333 7.168-7.714133 14.4384-11.025067 21.947734-3.2768 7.509333-5.973333 15.2576-7.8848 23.210666-0.238933 1.024-0.477867 2.048-0.682667 3.072-0.136533 0.7168-0.989867 1.1264-1.672533 0.955734-0.750933-0.2048-1.092267-0.955733-0.955733-1.672534 1.706667-8.157867 4.266667-16.0768 7.4752-23.7568s6.997333-15.121067 10.922666-22.459733c3.6864-6.8608 7.5776-13.653333 12.322134-19.831467a84.650667 84.650667 0 0 1 8.021333-9.1136c3.208533-3.106133 6.5536-6.109867 9.864533-9.1136 6.7584-6.144 13.6192-12.219733 20.548267-18.158933 0.887467-0.750933 1.7408-1.501867 2.628267-2.2528 0.546133-0.477867 1.365333-0.546133 1.911466 0 0.512 0.443733 0.580267 1.399467 0.034134 1.877333z" fill="#ABE3DE" p-id="5850"></path><path d="M1134.250667 803.566933c2.218667-4.164267 4.539733-8.2944 7.133866-12.219733 2.594133-3.925333 5.5296-7.68 8.942934-10.888533 1.979733-1.8432 4.096-3.515733 6.382933-4.983467 0.6144-0.375467 1.536-0.136533 1.8432 0.477867 0.341333 0.682667 0.170667 1.467733-0.477867 1.8432-2.013867 1.262933-3.515733 2.4576-5.290666 4.027733-1.672533 1.536-3.2768 3.208533-4.7104 4.949333-0.785067 0.9216-1.365333 1.672533-2.013867 2.56-0.682667 0.9216-1.365333 1.877333-2.013867 2.833067-1.297067 1.911467-2.525867 3.925333-3.6864 5.9392-1.3312 2.2528-2.56 4.539733-3.7888 6.826667-0.341333 0.6144-1.262933 0.887467-1.8432 0.477866a1.39264 1.39264 0 0 1-0.477866-1.8432zM1064.448 725.7088s11.298133-4.266667 6.5536-14.199467c0 0-5.085867-15.291733-37.614933-34.235733l-0.3072 3.925333s-2.2528-4.437333-6.997334-7.3728c0 0-2.901333 1.092267 10.752 18.158934-0.068267 0.034133 23.210667 34.269867 27.613867 33.723733z" fill="#4CC89E" p-id="5851"></path><path d="M1150.600533 697.344c-1.092267 3.208533-1.9456 6.519467-2.8672 9.762133-0.887467 3.2768-1.774933 6.5536-2.56 9.864534-1.570133 6.587733-2.935467 13.2096-4.027733 19.899733-1.1264 6.792533-2.116267 13.585067-2.389333 20.445867-0.136533 3.4816-0.170667 6.9632-0.3072 10.478933-0.170667 3.515733-0.580267 6.9632-0.955734 10.4448-0.7168 7.031467-1.194667 14.062933-1.809066 21.0944-0.068267 0.853333-0.170667 1.7408-0.238934 2.594133-0.068267 0.887467-1.399467 0.9216-1.399466 0 0-7.0656 0.546133-14.062933 1.2288-21.0944 0.341333-3.515733 0.8192-7.031467 1.058133-10.581333 0.238933-3.4816 0.3072-6.9632 0.4096-10.4448 0.1024-3.515733 0.273067-7.031467 0.7168-10.513067 0.4096-3.3792 0.9216-6.7584 1.467733-10.1376 1.1264-6.724267 2.525867-13.4144 4.266667-20.002133 1.706667-6.587733 3.618133-13.1072 6.007467-19.490133 0.3072-0.8192 0.580267-1.6384 0.853333-2.4576 0.136533-0.375467 0.648533-0.2048 0.546133 0.136533z" fill="#4CC89E" p-id="5852"></path><path d="M1096.260267 567.9104s-5.5296 7.68-4.5056 11.298133l4.5056 5.700267-5.256534-3.8912s-4.266667 27.579733 5.8368 45.602133c10.103467 17.988267 20.206933 16.5888 20.206934 16.5888s6.8608-0.648533 7.645866 2.594134c0.785067 3.242667 16.827733-4.778667 16.452267-14.370134-0.375467-9.591467-14.779733-48.4352-33.792-58.538666l-1.160533 3.4816-0.375467-4.9152c-0.068267 0-7.918933-4.369067-9.557333-3.549867zM1240.337067 667.136s4.096-2.901333 3.584 2.901333c-0.512 5.802667-0.682667 8.533333-0.682667 8.533334l-3.754667 1.706666h3.413334s-9.386667 25.565867-27.9552 32.733867c0 0-12.458667 6.826667-22.664534-1.706667 0 0-9.0112-11.605333-2.184533-20.309333 0 0 17.7152-21.2992 40.379733-25.9072l0.341334 2.048 2.901333-2.048c-0.034133 0 7.4752-3.242667 6.621867 2.048z" fill="#ABE3DE" p-id="5853"></path><path d="M1198.3872 757.828267c0.068267-0.443733-5.256533-4.881067-27.0336-1.262934-1.570133 0.273067-3.037867 0.8192-4.369067 1.672534-3.549867 2.2528-10.1376 7.338667-11.332266 14.6432 0 0-2.218667 6.621867 8.533333 6.178133s33.757867-18.1248 34.2016-21.230933z" fill="#4CC89E" p-id="5854"></path><path d="M1239.2448 672.324267c-0.341333 0.1024-0.682667 0.2048-0.989867 0.341333 0.170667-0.068267 0.3072-0.136533 0.477867-0.2048-0.580267 0.238933-1.1264 0.580267-1.6384 0.955733l0.4096-0.3072c-0.512 0.375467-0.955733 0.8192-1.3312 1.3312l0.3072-0.4096c-0.238933 0.3072-0.443733 0.6144-0.6144 0.9216-0.238933 0.4096-0.7168 0.785067-1.160533 0.887467-0.477867 0.136533-1.092267 0.068267-1.501867-0.2048a1.98656 1.98656 0 0 1-0.7168-2.6624c1.194667-2.184533 3.345067-3.822933 5.7344-4.437333a1.9456 1.9456 0 0 1 2.389333 1.365333c0.1024 0.512 0.1024 1.058133-0.2048 1.501867-0.273067 0.443733-0.648533 0.785067-1.160533 0.9216z" fill="#ABE3DE" p-id="5855"></path><path d="M459.8784 140.117333m-79.189333 0a79.189333 79.189333 0 1 0 158.378666 0 79.189333 79.189333 0 1 0-158.378666 0Z" fill="#4CC89E" p-id="5856"></path><path d="M468.309333 120.251733c0-5.085867-3.584-7.748267-8.328533-7.748266-2.798933 0-5.154133 0.853333-7.304533 2.286933-2.901333 1.9456-6.826667 1.467733-9.386667-0.887467-3.720533-3.413333-3.2768-9.4208 0.9216-12.253866 5.256533-3.549867 11.434667-5.700267 18.3296-5.700267 14.336 0 25.565867 6.826667 25.565867 22.903467 0 13.858133-14.677333 19.285333-17.783467 30.276266-0.955733 3.3792-3.8912 5.802667-7.406933 5.802667h-2.696534c-5.3248 0-9.181867-5.2224-7.441066-10.24 3.754667-10.888533 15.530667-17.032533 15.530666-24.439467z m-19.694933 53.179734c0.580267-5.461333 4.266667-9.8304 9.5232-10.922667 9.352533-1.9456 16.042667 4.881067 14.779733 14.336-0.7168 5.4272-4.5056 9.693867-9.693866 10.717867-9.045333 1.809067-15.598933-4.9152-14.609067-14.1312z" fill="#FFFFFF" p-id="5857"></path><path d="M321.262933 262.929067m-41.3696 0a41.3696 41.3696 0 1 0 82.7392 0 41.3696 41.3696 0 1 0-82.7392 0Z" fill="#4CC89E" p-id="5858"></path><path d="M325.700267 252.552533c0-2.6624-1.877333-4.061867-4.369067-4.061866-1.399467 0-2.56 0.4096-3.652267 1.092266-1.604267 1.024-3.652267 0.9216-5.051733-0.375466-1.911467-1.7408-1.774933-4.846933 0.341333-6.314667 2.7648-1.911467 6.0416-3.072 9.728-3.072 7.509333 0 13.346133 3.584 13.346134 11.9808 0 7.202133-7.611733 10.069333-9.284267 15.735467-0.546133 1.809067-2.082133 3.106133-3.959467 3.106133h-1.3312c-2.730667 0-4.778667-2.6624-3.925333-5.256533 1.911467-5.700267 8.157867-8.942933 8.157867-12.834134z m-10.308267 29.422934c-0.443733-4.027733 2.286933-7.406933 6.212267-7.4752 3.345067-0.068267 6.2464 2.628267 6.519466 5.973333 0.341333 4.061867-2.4576 7.3728-6.3488 7.3728-3.242667 0.034133-6.0416-2.628267-6.382933-5.870933z" fill="#FFFFFF" p-id="5859"></path></svg>