<?xml version="1.0" standalone="no"?><!DOCTYPE svg PUBLIC "-//W3C//DTD SVG 1.1//EN" "http://www.w3.org/Graphics/SVG/1.1/DTD/svg11.dtd"><svg t="1758954651618" class="icon" viewBox="0 0 1024 1024" version="1.1" xmlns="http://www.w3.org/2000/svg" p-id="7010" width="500" height="500" xmlns:xlink="http://www.w3.org/1999/xlink"><path d="M849.96737415 980.96193651c0 19.40279674-15.7418917 35.14468845-35.14468843 35.14468845H78.06554502c-19.40279674 0-35.14468845-15.7418917-35.14468843-35.14468845V136.94027793c0-19.40279674 15.7418917-35.14468845 35.14468843-35.14468844h737.67236696c19.40279674 0 35.14468845 15.7418917 35.14468844 35.14468844v844.20470384h-0.91522627z m0 0" fill="#FF6161" p-id="7011"></path><path d="M76.23509249 139.68595674h741.333272v839.44552723h-741.333272z" fill="#FFC6C6" p-id="7012"></path><path d="M76.23509249 139.68595674h741.333272v784.89804205h-741.333272z" fill="#FFFFFF" p-id="7013"></path><path d="M646.2380083 230.29335665c0-41.73431754-34.22946219-75.96377974-75.96377972-75.96377974h-247.11109067c-41.73431754 0-75.96377974 34.22946219-75.96377971 75.96377974h399.0386501z m0 0" fill="#D3D3D3" p-id="7014"></path><path d="M251.95853474 205.39920233c-2.74567878 8.23703635-4.5761313 16.65711798-4.5761313 25.07719957h398.85560486c0-9.33530787-1.83045253-17.57234421-4.57613132-25.07719957H251.95853474z m0 0" fill="#A5A5A5" p-id="7015"></path><path d="M452.39308607 8.25946555c-36.97514099 0-67.54369811 30.56855712-67.54369812 67.54369811v86.03126861h124.10468108v-97.197029c0-31.48378341-25.07719956-56.37793773-56.56098296-56.37793772z m-5.49135759 82.37036355c-12.08098666 0-21.23324927-9.33530787-21.23324923-21.23324926 0-12.08098666 9.33530787-21.23324927 21.23324923-21.23324927 12.08098666 0 21.23324927 9.33530787 21.23324928 21.23324927s-9.33530787 21.23324927-21.23324928 21.23324926z m0 0" fill="#D3D3D3" p-id="7016"></path><path d="M579.06040068 445.00543764H176.72693603c-10.06748889 0-18.30452524-8.23703635-18.30452521-18.30452523s8.23703635-18.30452524 18.30452521-18.30452523h402.1504194c10.06748889 0 18.30452524 8.23703635 18.30452523 18.30452523 0.18304527 10.06748889-8.05399109 18.30452524-18.12147998 18.30452523z" fill="#B2D0FF" p-id="7017"></path><path d="M579.06040068 542.38551189H176.72693603c-10.06748889 0-18.30452524-8.23703635-18.30452521-18.30452523s8.23703635-18.30452524 18.30452521-18.30452523h402.1504194c10.06748889 0 18.30452524 8.23703635 18.30452523 18.30452523 0.18304527 10.06748889-8.05399109 18.30452524-18.12147998 18.30452523zM579.06040068 639.76558612H176.90998129c-10.06748889 0-18.30452524-8.23703635-18.30452524-18.30452521s8.23703635-18.30452524 18.30452524-18.30452524h402.15041939c10.06748889 0 18.30452524 8.23703635 18.30452525 18.30452524s-8.23703635 18.30452524-18.30452525 18.30452521zM458.98271517 737.14566037H173.43212149c-10.06748889 0-18.30452524-8.23703635-18.30452523-18.30452523s8.23703635-18.30452524 18.30452523-18.30452521h285.55059368c10.06748889 0 18.30452524 8.23703635 18.3045252 18.30452521s-8.23703635 18.30452524-18.3045252 18.30452523z" fill="#8095FF" p-id="7018"></path><path d="M543.36657648 834.52573462H173.43212149c-10.06748889 0-18.30452524-8.23703635-18.30452523-18.30452521s8.23703635-18.30452524 18.30452523-18.30452526h369.93445499c10.06748889 0 18.30452524 8.23703635 18.30452525 18.30452526s-8.23703635 18.30452524-18.30452525 18.30452521z" fill="#FF7029" p-id="7019"></path><path d="M674.9761129 455.25597177c-4.5761313-4.5761313-4.5761313-11.71489617 0-16.29102745l61.50320482-61.50320479c4.39308606-4.39308606 11.71489617-4.39308606 16.29102743 0 4.5761313 4.5761313 4.5761313 11.71489617 0 16.29102746L691.26714037 455.25597177a11.71489617 11.71489617 0 0 1-16.29102747 0z m0 0" fill="#20BA3D" p-id="7020"></path><path d="M691.08409511 455.43901701c-4.5761313 4.5761313-12.08098666 4.2100408-17.02320845-0.732181l-25.44329008-25.44329006c-4.9422218-4.9422218-5.30831231-12.44707716-0.73218102-17.02320848 4.5761313-4.5761313 12.08098666-4.2100408 17.02320847 0.73218099l25.4432901 25.44329008c4.9422218 4.75917655 5.30831231 12.44707716 0.73218098 17.02320847z m0 0M674.9761129 552.26995552c-4.5761313-4.5761313-4.5761313-11.71489617 0-16.29102746l61.50320482-61.50320477c4.39308606-4.39308606 11.71489617-4.39308606 16.29102743 0 4.5761313 4.5761313 4.5761313 11.71489617 0 16.29102744L691.26714037 552.26995552a11.71489617 11.71489617 0 0 1-16.29102747 0z m0 0" fill="#20BA3D" p-id="7021"></path><path d="M691.08409511 552.45300076c-4.5761313 4.5761313-12.08098666 4.2100408-17.02320845-0.73218099l-25.44329008-25.44329007c-4.9422218-4.9422218-5.30831231-12.44707716-0.73218102-17.02320848 4.5761313-4.5761313 12.08098666-4.2100408 17.02320847 0.732181l25.4432901 25.44329007c4.9422218 4.75917655 5.30831231 12.44707716 0.73218098 17.02320847z m0 0" fill="#20BA3D" p-id="7022"></path><path d="M675.89133917 800.8454082l-63.88279306-63.88279307 230.0878822-230.08788221 63.88279307 63.8827931-230.08788221 230.08788218z m230.27092746-230.08788218" fill="#426ABA" p-id="7023"></path><path d="M703.71421754 828.11915079l-32.03291916-32.03291914L901.95222582 565.99834945l32.03291917 32.03291917-230.27092745 230.08788217zM933.98514499 598.03126862" fill="#2F50A5" p-id="7024"></path><path d="M615.48640592 740.25742967L583.45348674 708.22451051l230.0878822-230.08788217 32.03291917 32.03291913-230.08788219 230.0878822zM845.75733335 510.16954747" fill="#5D80C6" p-id="7025"></path><path d="M902.13527108 566.54748521l-57.29316399-57.29316399 49.23917289-49.42221815 57.29316397 57.29316401-49.23917287 49.42221813z m49.42221814-49.2391729" fill="#DBC44F" p-id="7026"></path><path d="M951.19139871 517.12526708l32.94814541 32.03291913-49.42221812 49.42221815-32.94814544-32.03291915 49.42221815-49.42221813z m-49.42221815 49.23917288" fill="#BAA645" p-id="7027"></path><path d="M863.87881334 428.53136492l31.11769291 32.03291915-49.2391729 49.42221815-32.9481454-31.11769289 51.06962539-50.33744441z m-51.06962539 50.15439915" fill="#E8D470" p-id="7028"></path><path d="M970.04505967 563.25267068l-3.84395028 3.84395028-120.80986653-120.80986654 3.84395029-3.84395032 120.80986652 120.80986658z m-18.85366096 18.85366098l-3.84395031 3.84395027-120.80986654-120.80986652 3.84395032-3.84395032 120.80986653 120.80986657z m-120.80986653-120.62682131" fill="#A08E37" p-id="7029"></path><path d="M577.22994818 834.52573462l126.30122411-5.85744808-120.44377606-120.44377603-5.85744805 126.30122411z m6.04049332-126.30122411" fill="#DBBD82" p-id="7030"></path><path d="M577.22994818 834.52573462l126.30122411-5.85744808-32.03291916-32.03291915-94.26830495 37.89036723z m94.26830495-38.07341249" fill="#B7A267" p-id="7031"></path><path d="M577.22994818 834.52573462l38.07341247-94.0852597-32.21596442-32.21596441-5.85744805 126.30122411z m6.04049332-126.30122411" fill="#E8CF92" p-id="7032"></path><path d="M576.86385766 834.52573462l40.81909129-1.83045251-38.98863875-38.98863876-1.83045254 40.81909127z m1.83045254-41.00213652" fill="#545554" p-id="7033"></path><path d="M983.22431786 549.89036722c33.31423593-33.31423593 33.31423593-87.31258537 0-120.62682127l-60.22188803 60.22188801 60.22188803 60.40493326z m-60.22188803-60.40493326" fill="#C18F8F" p-id="7034"></path><path d="M983.22431786 429.26354595c-33.31423593-33.31423593-87.31258537-33.31423593-120.62682128 0l60.22188803 60.22188801 60.40493325-60.22188801z m-60.22188803 60.22188801" fill="#EFB4B4" p-id="7035"></path><path d="M343.11507041 298.20314526h-12.81316767c-4.2100408 0-6.5896291-2.74567878-6.77267431-8.23703635 0.36609051-4.9422218 2.56263353-7.50485534 6.77267431-7.68790061h43.19867955c4.9422218 0.36609051 7.50485534 2.92872403 7.68790062 7.68790061-0.36609051 5.12526708-2.92872403 7.87094583-7.68790062 8.23703635h-12.81316765v58.75752599c-0.36609051 5.49135757-3.29481454 8.23703635-9.15226261 8.23703636-5.49135757 0-8.42008162-2.74567878-8.60312687-8.23703636v-58.75752599zM389.60856451 292.34569718c0-6.5896291 2.92872403-10.06748889 8.60312687-10.06748888h29.10419512c5.12526708 0.36609051 7.87094583 2.92872403 8.23703635 7.68790061-0.36609051 5.12526708-3.11176927 7.87094583-8.23703635 8.23703635h-20.50106826v16.84016323H426.03456974c5.12526708 0.36609051 8.05399109 3.11176927 8.60312685 8.23703633-0.54913574 5.12526708-3.47785979 7.87094583-8.60312685 8.23703636h-19.2197515v17.75538949h21.41629452c5.12526708 0 7.87094583 2.56263353 8.23703635 7.68790058-0.36609051 5.12526708-3.11176927 7.87094583-8.23703635 8.23703636h-30.01942138c-5.49135757-0.36609051-8.42008162-3.11176927-8.60312687-8.60312685V292.34569718zM496.8730824 292.34569718c-0.36609051 5.49135757-2.92872403 8.42008162-7.68790062 8.60312687-1.28131676 0-3.29481454-0.36609051-6.40658383-1.28131675-3.66090506-1.28131676-6.77267435-1.83045253-9.15226261-1.83045254-6.04049333 0.36609051-9.33530787 2.74567878-9.51835313 7.3218101 0 3.29481454 4.39308606 6.22353857 13.17925816 8.60312685 14.2775297 1.28131676 22.88065653 9.88444364 25.99242585 25.99242584-1.28131676 16.4740727-11.16576039 25.07719956-30.0194214 25.99242583-18.48757049-0.36609051-28.00592361-4.39308606-28.18896884-12.26403192 0.36609051-5.12526708 2.92872403-7.87094583 7.68790058-8.23703633 1.46436202 0 4.2100408 0.54913574 8.23703636 1.8304525 4.9422218 1.83045253 8.60312685 2.74567878 11.34880565 2.74567879 7.50485534-0.36609051 11.5318509-3.66090506 11.89794141-10.06748887 0-3.66090506-4.9422218-6.95571961-14.64362018-10.06748889-13.72839391-1.28131676-21.78238503-8.60312685-24.16197332-22.33152079 1.28131676-16.4740727 10.79966988-25.26024481 28.73810461-26.35851633 14.46057493 0.91522626 21.96543027 4.5761313 22.69761131 11.34880564zM528.90600156 298.20314526h-12.81316768c-4.2100408 0-6.5896291-2.74567878-6.77267433-8.23703635 0.36609051-4.9422218 2.56263353-7.50485534 6.77267433-7.68790061h43.19867954c4.9422218 0.36609051 7.50485534 2.92872403 7.68790061 7.68790061-0.36609051 5.12526708-2.92872403 7.87094583-7.68790061 8.23703635h-12.81316765v58.75752599c-0.36609051 5.49135757-3.29481454 8.23703635-9.15226261 8.23703636-5.49135757 0-8.42008162-2.74567878-8.60312685-8.23703636v-58.75752599z" fill="#B2D0FF" p-id="7036"></path></svg>