<?xml version="1.0" standalone="no"?><!DOCTYPE svg PUBLIC "-//W3C//DTD SVG 1.1//EN" "http://www.w3.org/Graphics/SVG/1.1/DTD/svg11.dtd"><svg t="1759244185945" class="icon" viewBox="0 0 1024 1024" version="1.1" xmlns="http://www.w3.org/2000/svg" p-id="4800" width="500" height="500" xmlns:xlink="http://www.w3.org/1999/xlink"><path d="M0 327.68v368.64C0 877.294933 146.705067 1024 327.68 1024h368.64C877.294933 1024 1024 877.294933 1024 696.32V327.68C1024 146.705067 877.294933 0 696.32 0H327.68C146.705067 0 0 146.705067 0 327.68z" fill="#44A47B" p-id="4801"></path><path d="M353.735111 193.422222h225.848889c3.413333 0.728178 5.233778 1.820444 5.028978 3.754667q-0.227556 2.321067-7.9872 5.12 0 2.503111-10.581334 25.258667c-10.581333 22.755556-11.377778 34.133333-22.755555 56.888888s-8.009956 11.377778-11.377778 34.133334q-3.367822 22.755556-3.367822 45.511111v102.4q43.281067 39.958756 71.634489 56.888889 100.169956-31.744 182.044444-68.266667l1.820445 249.264356a80.668444 80.668444 0 0 1-80.6912 80.6912H353.735111A80.668444 80.668444 0 0 1 273.066667 704.375467V274.113422A80.668444 80.668444 0 0 1 353.735111 193.422222z m24.758045 353.712356v160.426666a26.168889 26.168889 0 1 0 52.337777 0v-160.426666a26.168889 26.168889 0 0 0-52.337777 0z m123.904 160.426666v-108.248177a26.168889 26.168889 0 0 1 52.337777 0v108.225422a26.168889 26.168889 0 1 1-52.337777 0z m123.904-64.580266v64.534755a26.168889 26.168889 0 1 0 52.337777 0v-64.534755a26.168889 26.168889 0 1 0-52.337777 0z" fill="#FFFFFF" p-id="4802"></path><path d="M687.3088 205.482667l126.407111 69.495466c2.503111 1.365333 3.413333 4.460089 1.934222 6.849423l-18.818844 31.038577a5.415822 5.415822 0 0 1-7.190756 1.820445l-126.429866-69.495467a4.892444 4.892444 0 0 1-1.911467-6.849422l18.796089-31.038578a5.415822 5.415822 0 0 1 7.213511-1.820444z m61.963378 226.326755l0.113778 1.069511a15.724089 15.724089 0 0 1-9.853156 15.883378l-122.652444 51.086222a9.580089 9.580089 0 0 1-12.4928-4.755911 8.874667 8.874667 0 0 1 0.591644-8.192l36.477156-60.188444 5.848177 1.388089c15.177956 3.549867 30.993067-2.935467 38.729956-15.860623a32.244622 32.244622 0 0 0-12.288-45.306311 35.726222 35.726222 0 0 0-47.331556 12.515556 32.108089 32.108089 0 0 0 4.323556 39.298844l4.004978 4.096-36.613689 60.370489c0.591644 5.779911-4.846933 10.467556-10.831645 9.329778-5.984711-1.137778-9.147733-7.441067-6.257777-12.561067l-14.904889-126.7712a15.701333 15.701333 0 0 1 9.557333-16.065422l2.275556-1.024c33.632711-15.337244 59.118933-37.091556 79.007288-67.675022a15.928889 15.928889 0 0 1 20.866845-5.165511l43.918222 24.120889 43.190045 23.938844a15.041422 15.041422 0 0 1 5.9392 20.6848c-17.908622 32.1536-24.735289 64.147911-21.617778 99.783111z" fill="#FFFFFF" p-id="4803"></path></svg>