<?xml version="1.0" standalone="no"?><!DOCTYPE svg PUBLIC "-//W3C//DTD SVG 1.1//EN" "http://www.w3.org/Graphics/SVG/1.1/DTD/svg11.dtd"><svg t="1758960346134" class="icon" viewBox="0 0 1024 1024" version="1.1" xmlns="http://www.w3.org/2000/svg" p-id="6329" width="500" height="500" xmlns:xlink="http://www.w3.org/1999/xlink"><path d="M464.9 242.5c-49.6 0-89.8 40.2-89.8 89.8 0 49.6 40.2 89.8 89.8 89.8h-188c-49.6 0-89.8-40.2-89.8-89.8 0-49.6 40.2-89.8 89.8-89.8h188zM464.9 422.2c-49.6 0-89.8 40.2-89.8 89.8 0 49.6 40.2 89.8 89.8 89.8h-188c-49.6 0-89.8-40.2-89.8-89.8 0-49.6 40.2-89.8 89.8-89.8h188zM464.9 601.9c-49.6 0-89.8 40.2-89.8 89.8 0 49.6 40.2 89.8 89.8 89.8h-188c-49.6 0-89.8-40.2-89.8-89.8 0-49.6 40.2-89.8 89.8-89.8h188z" fill="#0183FC" p-id="6330"></path><path d="M464.9 439h-188c-58.8 0-106.6-47.8-106.6-106.6s47.8-106.6 106.6-106.6h188c9.3 0 16.8 7.5 16.8 16.8s-7.5 16.8-16.8 16.8h-188c-40.2 0-73 32.7-73 73s32.7 73 73 73h188c9.3 0 16.8 7.5 16.8 16.8s-7.5 16.8-16.8 16.8z" fill="#2E4969" p-id="6331"></path><path d="M464.9 439c-58.8 0-106.6-47.8-106.6-106.6s47.8-106.6 106.6-106.6h374.3c9.3 0 16.8 7.5 16.8 16.8s-7.5 16.8-16.8 16.8H464.9c-40.2 0-73 32.7-73 73s32.7 73 73 73c9.3 0 16.8 7.5 16.8 16.8s-7.5 16.8-16.8 16.8z" fill="#2E4969" p-id="6332"></path><path d="M839.2 439c-58.8 0-106.6-47.8-106.6-106.6s47.8-106.6 106.6-106.6c9.3 0 16.8 7.5 16.8 16.8s-7.5 16.8-16.8 16.8c-40.2 0-73 32.7-73 73s32.7 73 73 73c9.3 0 16.8 7.5 16.8 16.8s-7.5 16.8-16.8 16.8zM464.9 618.7h-188c-58.8 0-106.6-47.8-106.6-106.6s47.8-106.6 106.6-106.6h188c9.3 0 16.8 7.5 16.8 16.8s-7.5 16.8-16.8 16.8h-188c-40.2 0-73 32.7-73 73 0 40.2 32.7 73 73 73h188c9.3 0 16.8 7.5 16.8 16.8s-7.5 16.8-16.8 16.8z" fill="#2E4969" p-id="6333"></path><path d="M839.2 439h-164c-9.3 0-16.8-7.5-16.8-16.8s7.5-16.8 16.8-16.8h164c9.3 0 16.8 7.5 16.8 16.8s-7.5 16.8-16.8 16.8zM491.1 618.7h-26.2c-58.8 0-106.6-47.8-106.6-106.6s47.8-106.6 106.6-106.6h26.2c9.3 0 16.8 7.5 16.8 16.8s-7.5 16.8-16.8 16.8h-26.2c-40.2 0-73 32.7-73 73 0 40.2 32.7 73 73 73h26.2c9.3 0 16.8 7.5 16.8 16.8s-7.5 16.8-16.8 16.8zM839.2 618.7H680.6c-9.3 0-16.8-7.5-16.8-16.8s7.5-16.8 16.8-16.8h158.6c9.3 0 16.8 7.5 16.8 16.8s-7.5 16.8-16.8 16.8z" fill="#2E4969" p-id="6334"></path><path d="M839.2 618.7c-58.8 0-106.6-47.8-106.6-106.6s47.8-106.6 106.6-106.6c9.3 0 16.8 7.5 16.8 16.8s-7.5 16.8-16.8 16.8c-40.2 0-73 32.7-73 73 0 40.2 32.7 73 73 73 9.3 0 16.8 7.5 16.8 16.8s-7.5 16.8-16.8 16.8zM464.9 798.4h-188c-58.8 0-106.6-47.8-106.6-106.6s47.8-106.6 106.6-106.6h188c9.3 0 16.8 7.5 16.8 16.8s-7.5 16.8-16.8 16.8h-188c-40.2 0-73 32.7-73 73s32.7 73 73 73h188c9.3 0 16.8 7.5 16.8 16.8s-7.5 16.8-16.8 16.8z" fill="#2E4969" p-id="6335"></path><path d="M839.2 798.4H464.9c-58.8 0-106.6-47.8-106.6-106.6s47.8-106.6 106.6-106.6c9.3 0 16.8 7.5 16.8 16.8s-7.5 16.8-16.8 16.8c-40.2 0-73 32.7-73 73s32.7 73 73 73h374.3c9.3 0 16.8 7.5 16.8 16.8s-7.5 16.8-16.8 16.8z" fill="#2E4969" p-id="6336"></path><path d="M839.2 798.4c-58.8 0-106.6-47.8-106.6-106.6s47.8-106.6 106.6-106.6c9.3 0 16.8 7.5 16.8 16.8s-7.5 16.8-16.8 16.8c-40.2 0-73 32.7-73 73s32.7 73 73 73c9.3 0 16.8 7.5 16.8 16.8s-7.5 16.8-16.8 16.8z" fill="#2E4969" p-id="6337"></path><path d="M491.1 665c-3.2 0-6.3-0.9-9.1-2.7-4.8-3.1-7.7-8.4-7.7-14.2v-289c0-9.3 7.5-16.8 16.8-16.8h184.1c9.3 0 16.8 7.5 16.8 16.8v289c0 5.7-2.9 11.1-7.7 14.2-4.8 3.1-10.9 3.5-16.1 1.1l-85-39.2-85.1 39.2c-2.2 1.1-4.6 1.6-7 1.6z m16.8-289v246l68.3-31.4c4.5-2.1 9.6-2.1 14.1 0l68.2 31.4V376H507.9z" fill="#2E4969" p-id="6338"></path></svg>