<?xml version="1.0" standalone="no"?><!DOCTYPE svg PUBLIC "-//W3C//DTD SVG 1.1//EN" "http://www.w3.org/Graphics/SVG/1.1/DTD/svg11.dtd"><svg t="1758807626877" class="icon" viewBox="0 0 1024 1024" version="1.1" xmlns="http://www.w3.org/2000/svg" p-id="8980" width="500" height="500" xmlns:xlink="http://www.w3.org/1999/xlink"><path d="M524 633.1s26.7-24.9 26.8-65.3c0-51.4-41.7-93.1-93.1-93.1-37.9 0-70.4 22.8-84.9 55.3l-0.1-0.1c-189.1-55.3-161.2-241.4-161.2-241.4S89.6 411.2 85.4 567.8c0 205.6 166.7 372.3 372.3 372.3 205.7 0-16.8-85.9 66.3-307z" fill="#0D4FF7" p-id="8981"></path><path d="M457.7 958.7c-215.6 0-390.9-175.4-390.9-390.9 4.3-162.6 126.3-287.1 131.5-292.4 5.7-5.7 14.3-7.1 21.6-3.5 7.2 3.6 11.2 11.4 10 19.4-1 6.7-21.5 161.7 133.9 216.3 20.3-31.7 55.6-51.5 93.9-51.5 61.6 0 111.7 50.1 111.7 111.7-0.1 39.1-20.9 66.1-29.3 75.4-35.2 96.9-8.4 163.7 11.2 212.6 12.5 31.1 22.3 55.6 8.3 76.4-13 19.3-40.6 26.5-101.9 26.5zM193.1 339.6c-34.9 46.5-86.4 131.3-89 228.7 0 194.5 158.7 353.2 353.7 353.2 61.1 0 69.9-8.4 71.1-10.1 3-4.4-6-26.8-12-41.7-19.6-48.9-52.5-130.8-10.2-243.1 1-2.6 2.6-5 4.6-7 0.7-0.7 20.9-20.8 21-51.8 0-41-33.4-74.4-74.5-74.4-29.3 0-55.9 17.4-67.9 44.3-2.4 5.4-7.2 9.3-13 10.6-3.5 0.8-7.1 0.5-10.4-0.7-135.4-40.1-167.2-143.8-173.4-208z" fill="#231815" p-id="8982"></path><path d="M457.7 958.7c-215.6 0-390.9-175.4-390.9-390.9s175.4-390.9 390.9-390.9c10.3 0 18.6 8.3 18.6 18.6s-8.3 18.6-18.6 18.6c-195 0-353.7 158.7-353.7 353.7s158.7 353.7 353.7 353.7 353.7-158.7 353.7-353.7c0-10.3 8.3-18.6 18.6-18.6s18.6 8.3 18.6 18.6c0.1 215.5-175.3 390.9-390.9 390.9z" fill="#231815" p-id="8983"></path><path d="M457.7 679.5c-61.6 0-111.7-50.1-111.7-111.7s50.1-111.7 111.7-111.7 111.7 50.1 111.7 111.7-50.1 111.7-111.7 111.7z m0-186.2c-41.1 0-74.5 33.4-74.5 74.5 0 41 33.4 74.4 74.5 74.4s74.5-33.4 74.5-74.4c0-41.1-33.4-74.5-74.5-74.5z" fill="#231815" p-id="8984"></path><path d="M830 586.4H557.3c-10.3 0-18.6-8.3-18.6-18.6s8.3-18.6 18.6-18.6H830c10.3 0 18.6 8.3 18.6 18.6 0.1 10.3-8.3 18.6-18.6 18.6zM457.7 486.8c-10.3 0-18.6-8.3-18.6-18.6V195.5c0-10.3 8.3-18.6 18.6-18.6s18.6 8.3 18.6 18.6v272.8c0.1 10.2-8.3 18.5-18.6 18.5zM941.7 511.9H621.2c-10.3 0-18.6-8.3-18.6-18.6 0-38.8-31.6-70.4-70.4-70.4-10.3 0-18.6-8.3-18.6-18.6V83.8c0-10.3 8.3-18.6 18.6-18.6 236.1 0 428.2 192.1 428.2 428.2 0 10.2-8.4 18.5-18.7 18.5z m-303.5-37.2h284.5c-9.5-200.8-171.1-362.4-371.9-371.9v284.4c44.5 7.9 79.6 43 87.4 87.5z" fill="#231815" p-id="8985"></path></svg>